<svg xmlns="http://www.w3.org/2000/svg" version="1.1" xmlns:xlink="http://www.w3.org/1999/xlink" viewBox="0 0 200 200"><rect width="200" height="200" fill="url('#gradient')"></rect><defs><linearGradient id="gradient" gradientTransform="rotate(132 0.5 0.5)"><stop offset="0%" stop-color="#2fa98e"></stop><stop offset="100%" stop-color="#d9e241"></stop></linearGradient></defs><g><g fill="#1b3855" transform="matrix(9.035294117647059,0,0,9.035294117647059,0.29537151420818475,163.33912852231197)" stroke="#22bdbd" stroke-width="0.35"><path d="M4.50-14.22L4.50-2.64L10.47-2.64L10.47 0L1.07 0L1.07-14.22L4.50-14.22ZM17.58-4.46L17.58-14.22L21.00-14.22L21.00-4.46Q21.00-3.11 20.37-2.04Q19.74-0.98 18.61-0.39Q17.48 0.20 16.09 0.20L16.09 0.20Q13.77 0.20 12.48-0.98Q11.19-2.15 11.19-4.30L11.19-4.30L14.63-4.30Q14.63-3.32 14.97-2.88Q15.30-2.44 16.09-2.44L16.09-2.44Q16.81-2.44 17.19-2.97Q17.58-3.51 17.58-4.46L17.58-4.46Z"></path></g></g></svg>